# xmcd
#
# Track frame offsets: 
#        150
#        20186
#        39033
#        49012
#        65044
#        79790
#        90042
#        101708
#        118643
#        139852
#        166240
#        181984
#        193901
#        216090
#        229125
#        247115
#        263307
#        277612
#        293202
#        304928
#
# Disc length: 4213 seconds
#
# Revision: 2
# Processed by: cddbd v1.5.2PL0 Copyright (c) Steve Scherf et al.
# Submitted via: ExactAudioCopy v0.99pb5
#
DISCID=13107314
DTITLE=Various Artist - 100 Megahits - Country - CD 5
DYEAR=2011
DGENRE=Country
TTITLE0=Gunter Gabriel - Er ist ein Kerl (der 30tonner Diesel)
TTITLE1=Roger Whittaker - ich kann ohne Country Music nicht leben
TTITLE2=Bruce Low - Tabak und Rum
TTITLE3=Truck Stop - ich möcht' so gern Dave Dudley hör'n (Neuaufnahme
TTITLE3=1998)
TTITLE4=Tom Astor - Ich komme gern nach Haus
TTITLE5=Freddy Quinn - Die schönste Frau von Texas
TTITLE6=Frank Schöbel - He dreams of Cowboy City
TTITLE7=Michael Hirte - Spiel mir das Lied vom Tod
TTITLE8=Mary Roos - Arizona Man
TTITLE9=Fredl Fesl - Der Cowboy (Live)
TTITLE10=Audrey Landers - Some broken hearts never mend
TTITLE11=Woolpackers - Line dance party
TTITLE12=Ty Herndon and Stephanie Bentley - Heart half empty
TTITLE13=Waylon Jennings - Are you sure Hank done it this way?
TTITLE14=Sara Evans - A real fine place to start
TTITLE15=Patty Loveless - Blame it on your heart
TTITLE16=Miranda Lambert - Gunpowder and lead
TTITLE17=Smokie - Living next door to Alice
TTITLE18=Bruce Low - Sieben Dinge braucht der Cowboy
TTITLE19=Tom Astor - Ring aus Feuer
EXTD=
EXTT0=
EXTT1=
EXTT2=
EXTT3=
EXTT4=
EXTT5=
EXTT6=
EXTT7=
EXTT8=
EXTT9=
EXTT10=
EXTT11=
EXTT12=
EXTT13=
EXTT14=
EXTT15=
EXTT16=
EXTT17=
EXTT18=
EXTT19=
PLAYORDER=
